<svg id="visual" viewBox="0 0 1920 1080" width="1920" height="1080" xmlns="http://www.w3.org/2000/svg" xmlns:xlink="http://www.w3.org/1999/xlink" version="1.1"><path d="M0 174L137 66L274 98L411 141L549 77L686 185L823 77L960 66L1097 77L1234 77L1371 163L1509 185L1646 195L1783 44L1920 195L1920 0L1783 0L1646 0L1509 0L1371 0L1234 0L1097 0L960 0L823 0L686 0L549 0L411 0L274 0L137 0L0 0Z" fill="#131415"></path><path d="M0 271L137 195L274 260L411 228L549 174L686 282L823 141L960 228L1097 217L1234 228L1371 293L1509 271L1646 239L1783 152L1920 249L1920 193L1783 42L1646 193L1509 183L1371 161L1234 75L1097 75L960 64L823 75L686 183L549 75L411 139L274 96L137 64L0 172Z" fill="#191a1b"></path><path d="M0 422L137 519L274 422L411 401L549 444L686 433L823 465L960 347L1097 433L1234 552L1371 606L1509 390L1646 584L1783 368L1920 357L1920 247L1783 150L1646 237L1509 269L1371 291L1234 226L1097 215L960 226L823 139L686 280L549 172L411 226L274 258L137 193L0 269Z" fill="#202122"></path><path d="M0 660L137 714L274 519L411 638L549 692L686 563L823 735L960 465L1097 498L1234 757L1371 833L1509 606L1646 876L1783 498L1920 552L1920 355L1783 366L1646 582L1509 388L1371 604L1234 550L1097 431L960 345L823 463L686 431L549 442L411 399L274 420L137 517L0 420Z" fill="#262728"></path><path d="M0 941L137 941L274 887L411 887L549 951L686 930L823 876L960 887L1097 876L1234 1016L1371 973L1509 995L1646 995L1783 919L1920 876L1920 550L1783 496L1646 874L1509 604L1371 831L1234 755L1097 496L960 463L823 733L686 561L549 690L411 636L274 517L137 712L0 658Z" fill="#2c2e2f"></path><path d="M0 1081L137 1081L274 1081L411 1081L549 1081L686 1081L823 1081L960 1081L1097 1081L1234 1081L1371 1081L1509 1081L1646 1081L1783 1081L1920 1081L1920 874L1783 917L1646 993L1509 993L1371 971L1234 1014L1097 874L960 885L823 874L686 928L549 949L411 885L274 885L137 939L0 939Z" fill="#333436"></path></svg>