<svg id="visual" viewBox="0 0 1920 1080" width="1920" height="1080" xmlns="http://www.w3.org/2000/svg" xmlns:xlink="http://www.w3.org/1999/xlink" version="1.1"><path d="M0 206L213 163L427 206L640 23L853 141L1067 163L1280 66L1493 55L1707 0L1920 152L1920 0L1707 0L1493 0L1280 0L1067 0L853 0L640 0L427 0L213 0L0 0Z" fill="#333436"></path><path d="M0 271L213 282L427 271L640 174L853 411L1067 573L1280 455L1493 109L1707 239L1920 206L1920 150L1707 0L1493 53L1280 64L1067 161L853 139L640 21L427 204L213 161L0 204Z" fill="#2c2e2f"></path><path d="M0 811L213 347L427 671L640 563L853 746L1067 714L1280 768L1493 293L1707 617L1920 681L1920 204L1707 237L1493 107L1280 453L1067 571L853 409L640 172L427 269L213 280L0 269Z" fill="#262728"></path><path d="M0 822L213 800L427 725L640 833L853 854L1067 1038L1280 908L1493 746L1707 768L1920 703L1920 679L1707 615L1493 291L1280 766L1067 712L853 744L640 561L427 669L213 345L0 809Z" fill="#202122"></path><path d="M0 1005L213 962L427 941L640 1016L853 876L1067 1070L1280 941L1493 887L1707 1005L1920 930L1920 701L1707 766L1493 744L1280 906L1067 1036L853 852L640 831L427 723L213 798L0 820Z" fill="#191a1b"></path><path d="M0 1081L213 1081L427 1081L640 1081L853 1081L1067 1081L1280 1081L1493 1081L1707 1081L1920 1081L1920 928L1707 1003L1493 885L1280 939L1067 1068L853 874L640 1014L427 939L213 960L0 1003Z" fill="#131415"></path></svg>