<svg id="visual" viewBox="0 0 1920 1080" width="1920" height="1080" xmlns="http://www.w3.org/2000/svg" xmlns:xlink="http://www.w3.org/1999/xlink" version="1.1"><path d="M0 303L87 249L175 293L262 249L349 347L436 401L524 411L611 357L698 379L785 271L873 303L960 357L1047 174L1135 260L1222 228L1309 206L1396 379L1484 422L1571 336L1658 347L1745 368L1833 303L1920 336L1920 0L1833 0L1745 0L1658 0L1571 0L1484 0L1396 0L1309 0L1222 0L1135 0L1047 0L960 0L873 0L785 0L698 0L611 0L524 0L436 0L349 0L262 0L175 0L87 0L0 0Z" fill="#333436"></path><path d="M0 498L87 347L175 465L262 411L349 465L436 509L524 552L611 509L698 563L785 444L873 476L960 476L1047 357L1135 390L1222 401L1309 368L1396 509L1484 541L1571 465L1658 465L1745 552L1833 465L1920 509L1920 334L1833 301L1745 366L1658 345L1571 334L1484 420L1396 377L1309 204L1222 226L1135 258L1047 172L960 355L873 301L785 269L698 377L611 355L524 409L436 399L349 345L262 247L175 291L87 247L0 301Z" fill="#2b2c2d"></path><path d="M0 757L87 746L175 811L262 779L349 811L436 746L524 833L611 725L698 811L785 811L873 833L960 811L1047 692L1135 714L1222 735L1309 779L1396 757L1484 822L1571 746L1658 800L1745 854L1833 789L1920 768L1920 507L1833 463L1745 550L1658 463L1571 463L1484 539L1396 507L1309 366L1222 399L1135 388L1047 355L960 474L873 474L785 442L698 561L611 507L524 550L436 507L349 463L262 409L175 463L87 345L0 496Z" fill="#232425"></path><path d="M0 876L87 908L175 897L262 919L349 930L436 876L524 919L611 854L698 951L785 941L873 919L960 919L1047 854L1135 865L1222 897L1309 887L1396 919L1484 941L1571 897L1658 897L1745 941L1833 887L1920 865L1920 766L1833 787L1745 852L1658 798L1571 744L1484 820L1396 755L1309 777L1222 733L1135 712L1047 690L960 809L873 831L785 809L698 809L611 723L524 831L436 744L349 809L262 777L175 809L87 744L0 755Z" fill="#1b1c1d"></path><path d="M0 1081L87 1081L175 1081L262 1081L349 1081L436 1081L524 1081L611 1081L698 1081L785 1081L873 1081L960 1081L1047 1081L1135 1081L1222 1081L1309 1081L1396 1081L1484 1081L1571 1081L1658 1081L1745 1081L1833 1081L1920 1081L1920 863L1833 885L1745 939L1658 895L1571 895L1484 939L1396 917L1309 885L1222 895L1135 863L1047 852L960 917L873 917L785 939L698 949L611 852L524 917L436 874L349 928L262 917L175 895L87 906L0 874Z" fill="#131415"></path></svg>