<svg id="visual" viewBox="0 0 1920 1080" width="1920" height="1080" xmlns="http://www.w3.org/2000/svg" xmlns:xlink="http://www.w3.org/1999/xlink" version="1.1"><path d="M0 66L175 55L349 163L524 66L698 87L873 120L1047 33L1222 120L1396 44L1571 77L1745 55L1920 152L1920 0L1745 0L1571 0L1396 0L1222 0L1047 0L873 0L698 0L524 0L349 0L175 0L0 0Z" fill="#131415"></path><path d="M0 239L175 228L349 206L524 141L698 271L873 195L1047 379L1222 422L1396 314L1571 411L1745 271L1920 411L1920 150L1745 53L1571 75L1396 42L1222 118L1047 31L873 118L698 85L524 64L349 161L175 53L0 64Z" fill="#191a1b"></path><path d="M0 379L175 498L349 498L524 692L698 390L873 411L1047 584L1222 779L1396 530L1571 746L1745 671L1920 541L1920 409L1745 269L1571 409L1396 312L1222 420L1047 377L873 193L698 269L524 139L349 204L175 226L0 237Z" fill="#202122"></path><path d="M0 498L175 541L349 638L524 833L698 552L873 573L1047 649L1222 833L1396 714L1571 854L1745 757L1920 606L1920 539L1745 669L1571 744L1396 528L1222 777L1047 582L873 409L698 388L524 690L349 496L175 496L0 377Z" fill="#262728"></path><path d="M0 995L175 941L349 962L524 1016L698 930L873 908L1047 1016L1222 919L1396 1049L1571 1016L1745 984L1920 908L1920 604L1745 755L1571 852L1396 712L1222 831L1047 647L873 571L698 550L524 831L349 636L175 539L0 496Z" fill="#2c2e2f"></path><path d="M0 1081L175 1081L349 1081L524 1081L698 1081L873 1081L1047 1081L1222 1081L1396 1081L1571 1081L1745 1081L1920 1081L1920 906L1745 982L1571 1014L1396 1047L1222 917L1047 1014L873 906L698 928L524 1014L349 960L175 939L0 993Z" fill="#333436"></path></svg>