<svg id="visual" viewBox="0 0 900 600" width="900" height="600" xmlns="http://www.w3.org/2000/svg" xmlns:xlink="http://www.w3.org/1999/xlink" version="1.1"><rect x="0" y="0" width="900" height="600" fill="#151617"></rect><path d="M0 432L21.5 431.3C43 430.7 86 429.3 128.8 426.7C171.7 424 214.3 420 257.2 422.2C300 424.3 343 432.7 385.8 437.7C428.7 442.7 471.3 444.3 514.2 439.7C557 435 600 424 642.8 416.5C685.7 409 728.3 405 771.2 398C814 391 857 381 878.5 376L900 371L900 601L878.5 601C857 601 814 601 771.2 601C728.3 601 685.7 601 642.8 601C600 601 557 601 514.2 601C471.3 601 428.7 601 385.8 601C343 601 300 601 257.2 601C214.3 601 171.7 601 128.8 601C86 601 43 601 21.5 601L0 601Z" fill="#f4d933"></path><path d="M0 419L21.5 416.3C43 413.7 86 408.3 128.8 406.5C171.7 404.7 214.3 406.3 257.2 415.8C300 425.3 343 442.7 385.8 449.8C428.7 457 471.3 454 514.2 454.5C557 455 600 459 642.8 454C685.7 449 728.3 435 771.2 437.5C814 440 857 459 878.5 468.5L900 478L900 601L878.5 601C857 601 814 601 771.2 601C728.3 601 685.7 601 642.8 601C600 601 557 601 514.2 601C471.3 601 428.7 601 385.8 601C343 601 300 601 257.2 601C214.3 601 171.7 601 128.8 601C86 601 43 601 21.5 601L0 601Z" fill="#f2c324"></path><path d="M0 439L21.5 447.3C43 455.7 86 472.3 128.8 473.5C171.7 474.7 214.3 460.3 257.2 457.2C300 454 343 462 385.8 464.3C428.7 466.7 471.3 463.3 514.2 458.2C557 453 600 446 642.8 442.5C685.7 439 728.3 439 771.2 441C814 443 857 447 878.5 449L900 451L900 601L878.5 601C857 601 814 601 771.2 601C728.3 601 685.7 601 642.8 601C600 601 557 601 514.2 601C471.3 601 428.7 601 385.8 601C343 601 300 601 257.2 601C214.3 601 171.7 601 128.8 601C86 601 43 601 21.5 601L0 601Z" fill="#efad1a"></path><path d="M0 537L21.5 536.8C43 536.7 86 536.3 128.8 531C171.7 525.7 214.3 515.3 257.2 506.7C300 498 343 491 385.8 489.3C428.7 487.7 471.3 491.3 514.2 497C557 502.7 600 510.3 642.8 516.2C685.7 522 728.3 526 771.2 530.2C814 534.3 857 538.7 878.5 540.8L900 543L900 601L878.5 601C857 601 814 601 771.2 601C728.3 601 685.7 601 642.8 601C600 601 557 601 514.2 601C471.3 601 428.7 601 385.8 601C343 601 300 601 257.2 601C214.3 601 171.7 601 128.8 601C86 601 43 601 21.5 601L0 601Z" fill="#ea9715"></path><path d="M0 567L21.5 563.7C43 560.3 86 553.7 128.8 553.8C171.7 554 214.3 561 257.2 561C300 561 343 554 385.8 548.3C428.7 542.7 471.3 538.3 514.2 540.3C557 542.3 600 550.7 642.8 554.3C685.7 558 728.3 557 771.2 556C814 555 857 554 878.5 553.5L900 553L900 601L878.5 601C857 601 814 601 771.2 601C728.3 601 685.7 601 642.8 601C600 601 557 601 514.2 601C471.3 601 428.7 601 385.8 601C343 601 300 601 257.2 601C214.3 601 171.7 601 128.8 601C86 601 43 601 21.5 601L0 601Z" fill="#e38215"></path></svg>